/* XPM */
static char * bottom_right_inactive_xpm[] = {
"30 30 2 1",
" 	c None",
".	c #F5CE82",
"                           ...",
"                           ...",
"                           ...",
"                           ...",
"                           ...",
"                           ...",
"                           ...",
"                           ...",
"                           ...",
"                           ...",
"                           ...",
"                           ...",
"                           ...",
"                           ...",
"                           ...",
"                           ...",
"                           ...",
"                           ...",
"                           ...",
"                           ...",
"                           ...",
"                           ...",
"                           ...",
"                           ...",
"                           ...",
"                           ...",
"                           ...",
"..............................",
"..............................",
".............................."};
