/* XPM */
static char * bottom_right_active_xpm[] = {
"30 30 2 1",
" 	c None",
".	c #68C468",
"                           ...",
"                           ...",
"                           ...",
"                           ...",
"                           ...",
"                           ...",
"                           ...",
"                           ...",
"                           ...",
"                           ...",
"                           ...",
"                           ...",
"                           ...",
"                           ...",
"                           ...",
"                           ...",
"                           ...",
"                           ...",
"                           ...",
"                           ...",
"                           ...",
"                           ...",
"                           ...",
"                           ...",
"                           ...",
"                           ...",
"                           ...",
"..............................",
"..............................",
".............................."};
