/* XPM */
static char * close_inactive_xpm[] = {
"20 20 92 2",
"  	c None",
". 	c #AE822A",
"+ 	c #F5D086",
"@ 	c #F6D086",
"# 	c #F6CF86",
"$ 	c #F6D38D",
"% 	c #F6D28D",
"& 	c #F6D38E",
"* 	c #F7D28D",
"= 	c #F7D38D",
"- 	c #F6D594",
"; 	c #F7D694",
"> 	c #F7D594",
", 	c #F7D595",
"' 	c #F6D694",
") 	c #F7D89B",
"! 	c #F8D89B",
"~ 	c #F8DBA2",
"{ 	c #F8DBA3",
"] 	c #F8DDA9",
"^ 	c #F8DEAA",
"/ 	c #F8DEA9",
"( 	c #F9DDAA",
"_ 	c #F9DEAA",
": 	c #F9DDA9",
"< 	c #F9DEA9",
"[ 	c #F9E0B0",
"} 	c #F9E1B1",
"| 	c #F9E0B1",
"1 	c #F9E1B0",
"2 	c #FAE0B0",
"3 	c #FAE0B1",
"4 	c #FAE3B7",
"5 	c #F9E4B8",
"6 	c #FAE3B8",
"7 	c #F9E3B8",
"8 	c #FAE4B8",
"9 	c #F9E3B7",
"0 	c #FBE6BF",
"a 	c #FAE6BF",
"b 	c #FAE6BE",
"c 	c #FBE6BE",
"d 	c #FAE9C5",
"e 	c #FBE8C5",
"f 	c #FBE8C6",
"g 	c #FBE9C5",
"h 	c #FBE9C6",
"i 	c #FAE9C6",
"j 	c #FBECCC",
"k 	c #FCEBCC",
"l 	c #FCECCC",
"m 	c #FBECCD",
"n 	c #FBEBCC",
"o 	c #FCECCD",
"p 	c #FCEBCD",
"q 	c #FBEBCD",
"r 	c #FCEED4",
"s 	c #FCEFD3",
"t 	c #FCEED3",
"u 	c #FCEFD4",
"v 	c #FCF1DB",
"w 	c #FDF1DA",
"x 	c #FDF1DB",
"y 	c #FCF1DA",
"z 	c #FDF4E1",
"A 	c #FDF3E1",
"B 	c #FEF4E2",
"C 	c #FEF3E2",
"D 	c #FDF4E2",
"E 	c #FDF3E2",
"F 	c #FEF6E9",
"G 	c #FEF7E9",
"H 	c #FEF7E8",
"I 	c #FDF6E9",
"J 	c #FDF7E8",
"K 	c #FEF6E8",
"L 	c #FFF9EF",
"M 	c #FEF9F0",
"N 	c #FEFAF0",
"O 	c #FEF9EF",
"P 	c #FEFAEF",
"Q 	c #FFF9F0",
"R 	c #FFFAF0",
"S 	c #FFFCF7",
"T 	c #FFFDF7",
"U 	c #FEFCF7",
"V 	c #FEFCF6",
"W 	c #FFFCF6",
"X 	c #FFFDF6",
"Y 	c #FFFFFE",
"Z 	c #FFFEFE",
"` 	c #FFFFFD",
"    . . . . . . . . . . . . . . . .     ",
"  . + + @ # @ + @ @ @ @ + @ @ + @ @ .   ",
". $ % % $ & * % $ = = % $ $ $ = = = % . ",
". - ; > - ; > , > > > > > ' > > > > ; . ",
". ) ! ! ) ) ) ) ) ! ) ) ) ! ! . ) ! ) . ",
". ~ { ~ { ~ ~ ~ ~ ~ { ~ { { . ~ ~ ~ ~ . ",
". ] ^ / ( / _ : < : < < : . < : : < / . ",
". [ [ } } | | | [ 1 2 2 . [ [ 1 3 2 [ . ",
". 4 5 6 4 4 7 4 7 8 4 . 7 9 4 4 9 4 6 . ",
". 0 a b a b a a b b . c b a a b b a b . ",
". d d e d f g d h . e g d h g h h e i . ",
". j k l k m n j . o j k m m p q l j j . ",
". r s r s t r . t s t t r t t r t t u . ",
". v w x w w . x y y w v w x x v v y x . ",
". z A z B . z z C z D D E D D z D z z . ",
". F F G . F H H F G F I G J J G H K G . ",
". L M N N O P N M L M Q O M M R L M M . ",
". S T U V W S W S S S S T S X S U W S . ",
"  . Y Y Z Y ` Y Y ` Y Y Z Y Y ` Y Z .   ",
"    . . . . . . . . . . . . . . . .     "};
