/* XPM */
static char * hide_prelight_xpm[] = {
"20 20 3 1",
" 	c None",
".	c #604000",
"+	c #F5CE82",
"  ................  ",
" .++++++++++++++++. ",
".++++++++++++++++++.",
".++++++++++++++++++.",
".++++++++++++++.+++.",
".+++++++++++++.++++.",
".++++++++++++.+++++.",
".+++++++++++.++++++.",
".++++++++++.+++++++.",
".+++++++++.++++++++.",
".+++.++++.+++++++++.",
".+++.+++.++++++++++.",
".+++.++.+++++++++++.",
".+++.+.++++++++++++.",
".+++..+++++++++++++.",
".+++......+++++++++.",
".++++++++++++++++++.",
".++++++++++++++++++.",
" .++++++++++++++++. ",
"  ................  "};
