/* XPM */
static char * minimize_active_xpm[] = {
"20 20 85 1",
" 	c None",
".	c #AE822A",
"+	c #F5D086",
"@	c #F6D086",
"#	c #F6D28D",
"$	c #F6D38D",
"%	c #F7D38D",
"&	c #F7D28E",
"*	c #F7D28D",
"=	c #F7D594",
"-	c #F7D694",
";	c #F6D594",
">	c #F6D694",
",	c #F7D89B",
"'	c #F7D99B",
")	c #F8D89B",
"!	c #F8D99B",
"~	c #F7D89C",
"{	c #F8D89C",
"]	c #F8DBA2",
"^	c #F8DBA3",
"/	c #F8DAA2",
"(	c #F9DDA8",
"_	c #F8DDA8",
":	c #F9DDA7",
"<	c #F8DDA7",
"[	c #F9E0AE",
"}	c #F9E0AF",
"|	c #F9DFAE",
"1	c #FAE0AE",
"2	c #FAE2B5",
"3	c #F9E3B5",
"4	c #FAE3B6",
"5	c #FAE3B5",
"6	c #F9E2B5",
"7	c #FAE2B6",
"8	c #F9E2B6",
"9	c #F9E3B6",
"0	c #FAE5BC",
"a	c #FBE6BD",
"b	c #FAE5BD",
"c	c #FAE6BD",
"d	c #FBE5BD",
"e	c #FBE5BC",
"f	c #FBE8C4",
"g	c #FAE8C4",
"h	c #FBE8C3",
"i	c #FCEACB",
"j	c #FBEBCB",
"k	c #FBEBCA",
"l	c #FCEACA",
"m	c #FCEBCA",
"n	c #FBEACA",
"o	c #FCEBCB",
"p	c #FCEED2",
"q	c #FCEDD2",
"r	c #FBEDD2",
"s	c #FBEED2",
"t	c #FCEED1",
"u	c #FDF0D8",
"v	c #FCF1D9",
"w	c #FCF0D9",
"x	c #FCF0D8",
"y	c #FCF1D8",
"z	c #FDF0D9",
"A	c #FDF1D9",
"B	c #FDF3DF",
"C	c #FDF3E0",
"D	c #FDF4E0",
"E	c #FEF6E7",
"F	c #FDF6E7",
"G	c #FEF5E7",
"H	c #FEF6E6",
"I	c #FEF9EE",
"J	c #FEF8ED",
"K	c #FFF9EE",
"L	c #FEF8EE",
"M	c #FFFBF5",
"N	c #FFFCF5",
"O	c #FEFBF5",
"P	c #FEFCF5",
"Q	c #FFFBF4",
"R	c #FFFEFC",
"S	c #FFFEFB",
"T	c #FFFFFC",
"  ................  ",
" .+@@@@++@@@@+@@@@. ",
".#$#$##$##%$#&*$%*%.",
".=-;--->=======-=-=.",
".,')),!,~,){)),.),).",
".]]]]]]^]]^]]]./]]].",
".(_:_::<:<<<(.<(((<.",
".[}}[||}[[[|.[[}|1[.",
".2324567887.9394453.",
".0abaccbbb.0adbeabd.",
".fff.gfhh.hhhfgffgh.",
".ijj.jkk.jjljmnojij.",
".ppq.pq.rqsssqqtqpp.",
".uvu.w.wxyvzAwxzwww.",
".BCC..CCDCCCCCCCCCB.",
".EFF......FGFEHFEEH.",
".IIIJIIIIKLLIKIJIII.",
".MNNOMMOOOMMMOOPNQP.",
" .RRRRSRTRRRSRRRRR. ",
"  ................  "};
