/* XPM */
static char * maximize_active_xpm[] = {
"20 20 91 1",
" 	c None",
".	c #AE822A",
"+	c #F6D086",
"@	c #F5CF86",
"#	c #F5D086",
"$	c #F6CF86",
"%	c #F6D28D",
"&	c #F7D38D",
"*	c #F6D38D",
"=	c #F7D28D",
"-	c #F7D694",
";	c #F7D594",
">	c #F7D695",
",	c #F6D594",
"'	c #F8D89C",
")	c #F8D99B",
"!	c #F7D89B",
"~	c #F8D89B",
"{	c #F7D99B",
"]	c #F7D89C",
"^	c #F8DBA2",
"/	c #F8DBA3",
"(	c #F9DEA9",
"_	c #F8DDA9",
":	c #F9DDA9",
"<	c #F9DEAA",
"[	c #F8DEA9",
"}	c #F8DEAA",
"|	c #F9E0B0",
"1	c #F9E1B0",
"2	c #F9E0B1",
"3	c #FAE1B0",
"4	c #FAE1B1",
"5	c #FAE3B7",
"6	c #FAE4B7",
"7	c #FAE3B8",
"8	c #FAE4B8",
"9	c #F9E3B7",
"0	c #F9E4B7",
"a	c #FAE6BE",
"b	c #FBE6BE",
"c	c #FAE6BF",
"d	c #FBE6BF",
"e	c #FBE9C5",
"f	c #FBE9C6",
"g	c #FBE8C5",
"h	c #FAE8C5",
"i	c #FBE8C6",
"j	c #FBECCD",
"k	c #FBECCC",
"l	c #FCEBCD",
"m	c #FBEBCD",
"n	c #FCECCC",
"o	c #FBEBCC",
"p	c #FCECCD",
"q	c #FCEFD4",
"r	c #FBEFD3",
"s	c #FCEED4",
"t	c #FCEFD3",
"u	c #FCEED3",
"v	c #FBEFD4",
"w	c #FBEED3",
"x	c #FCF1DA",
"y	c #FDF1DB",
"z	c #FCF1DB",
"A	c #FDF1DA",
"B	c #FDF4E2",
"C	c #FDF3E2",
"D	c #FEF4E1",
"E	c #FDF4E1",
"F	c #FDF7E8",
"G	c #FDF6E9",
"H	c #FEF7E9",
"I	c #FEF7E8",
"J	c #FEF6E9",
"K	c #FEF6E8",
"L	c #FDF7E9",
"M	c #FEFAEF",
"N	c #FEF9F0",
"O	c #FFF9EF",
"P	c #FEFAF0",
"Q	c #FFFAF0",
"R	c #FEF9EF",
"S	c #FFF9F0",
"T	c #FFFCF7",
"U	c #FEFCF7",
"V	c #FEFCF6",
"W	c #FEFDF7",
"X	c #FFFFFE",
"Y	c #FFFEFE",
"Z	c #FFFFFD",
"  ................  ",
" .++++++@##++$+++$. ",
".%&&&****&&***=%**&.",
".-;;>;;-;---;,;;-;;.",
".')!~{!!!]~'!!~'!!~.",
".^^^............^/^.",
".(((._:(((<[(((.((}.",
".|12.3111|11112.|14.",
".556.7587776960.565.",
".abb.bbcbdadaaa.caa.",
".eef.gefggeefgf.ehi.",
".jkk.lmlnkmoojp.nml.",
".qrs.tsutttuttv.suw.",
".xxy.zAyyxzzyyA.yAA.",
".BCD............EBC.",
".FGHIHHJKKKLJLJFFGI.",
".MNMONPNPQNNQQNRSNS.",
".TTUTVTTVTTVTVWTVTT.",
" .XYXZXYXXXXXXXXYX. ",
"  ................  "};
