/* XPM */
static char * maximize_toggle_xpm[] = {
"20 20 80 1",
" 	c None",
".	c #AE822A",
"+	c #F6D086",
"@	c #F5D086",
"#	c #F6CF86",
"$	c #F6D28D",
"%	c #F7D38D",
"&	c #F6D38D",
"*	c #F7D28D",
"=	c #F6D694",
"-	c #F7D594",
";	c #F7D694",
">	c #F6D594",
",	c #F7D89C",
"'	c #F8D89B",
")	c #F7D89B",
"!	c #F7D99B",
"~	c #F8D89C",
"{	c #F8DBA3",
"]	c #F8DBA2",
"^	c #F8DAA2",
"/	c #F9DEAA",
"(	c #F9DEA9",
"_	c #F8DEA9",
":	c #F8DDA9",
"<	c #F9DDA9",
"[	c #FAE0B1",
"}	c #FAE0B0",
"|	c #F9E0B1",
"1	c #F9E1B0",
"2	c #FAE1B0",
"3	c #FAE3B7",
"4	c #F5CE82",
"5	c #FAE3B8",
"6	c #F9E3B7",
"7	c #FAE6BE",
"8	c #FAE6BF",
"9	c #FBE5BE",
"0	c #FBE6BE",
"a	c #FBE9C5",
"b	c #FBE9C6",
"c	c #FAE9C6",
"d	c #FBE8C6",
"e	c #FBEBCC",
"f	c #FBECCD",
"g	c #FBEBCD",
"h	c #FCEFD3",
"i	c #FCEED3",
"j	c #FCEFD4",
"k	c #FCEED4",
"l	c #FCF1DB",
"m	c #FDF1DA",
"n	c #FCF1DA",
"o	c #FDF1DB",
"p	c #FDF4E2",
"q	c #FDF4E1",
"r	c #FDF3E2",
"s	c #FEF3E2",
"t	c #FEF6E9",
"u	c #FDF7E9",
"v	c #FDF6E8",
"w	c #FEF7E9",
"x	c #FDF7E8",
"y	c #FDF6E9",
"z	c #FEF6E8",
"A	c #FEF7E8",
"B	c #FEFAF0",
"C	c #FEF9F0",
"D	c #FFF9F0",
"E	c #FEF9EF",
"F	c #FEFAEF",
"G	c #FFFCF6",
"H	c #FEFCF7",
"I	c #FFFCF7",
"J	c #FEFCF6",
"K	c #FFFDF7",
"L	c #FEFDF7",
"M	c #FFFFFE",
"N	c #FFFFFD",
"O	c #FFFEFE",
"  ................  ",
" .++++@++++#++++++. ",
".$%&%%$*&&%&&&$%$&$.",
".=-----;=----;--->;.",
".,''))'))!,,))~'')).",
".{]^^{..........^]].",
"./(_/(._((___(:.(_<.",
".[}|..........1.112.",
".333.44444444.5.653.",
".778.44444444.9.870.",
".abc.44444444.d.ada.",
".efg.44444444.f.efg.",
".hhi.44444444...ijk.",
".llm.44444444.mnoon.",
".pqr..........pqqsp.",
".ttttutvuvwuwxwyzyA.",
".BCDCDBCEECFCCCCCCC.",
".GHIJGIIKLIIIIIIIIH.",
" .MNMMMMMOMNMNNNMN. ",
"  ................  "};
