/* XPM */
static char * menu_active_xpm[] = {
"20 20 92 2",
"  	c None",
". 	c #AE822A",
"+ 	c #F6D086",
"@ 	c #F5D086",
"# 	c #F6D085",
"$ 	c #F6CF86",
"% 	c #F5CF85",
"& 	c #F6D28C",
"* 	c #F7D38C",
"= 	c #F7D38D",
"- 	c #F6D38D",
"; 	c #F6D38C",
"> 	c #F7D28D",
", 	c #F7D28C",
"' 	c #F6D28D",
") 	c #F7D593",
"! 	c #F6D593",
"~ 	c #F7D594",
"{ 	c #F7D693",
"] 	c #F8D99C",
"^ 	c #F8D89C",
"/ 	c #F8D89B",
"( 	c #F7D99B",
"_ 	c #F7D99C",
": 	c #F7D89B",
"< 	c #F7D89C",
"[ 	c #F8D99B",
"} 	c #F8DAA2",
"| 	c #F8DBA2",
"1 	c #F8DBA3",
"2 	c #F9DDA9",
"3 	c #F8DDA9",
"4 	c #F9DEA8",
"5 	c #F9DEA9",
"6 	c #F9DDA8",
"7 	c #F8DEA8",
"8 	c #F8DEA9",
"9 	c #F9E0AF",
"0 	c #F9E0B0",
"a 	c #F9E1B0",
"b 	c #FAE1B0",
"c 	c #F9E1AF",
"d 	c #F9E3B6",
"e 	c #F9E2B6",
"f 	c #FAE3B7",
"g 	c #FAE3B6",
"h 	c #FAE2B7",
"i 	c #FAE2B6",
"j 	c #FAE6BD",
"k 	c #FBE5BD",
"l 	c #FAE5BD",
"m 	c #FAE8C4",
"n 	c #FBE8C3",
"o 	c #FBE8C4",
"p 	c #FBEBCC",
"q 	c #FBECCC",
"r 	c #FCEBCB",
"s 	c #FBEBCB",
"t 	c #FCECCC",
"u 	c #FCEBCC",
"v 	c #FCEED3",
"w 	c #FCEDD2",
"x 	c #FCEED2",
"y 	c #FCEDD3",
"z 	c #FCF1D9",
"A 	c #FCF0D9",
"B 	c #FDF1DA",
"C 	c #FDF0D9",
"D 	c #FDF3E0",
"E 	c #FDF4DF",
"F 	c #FDF3DF",
"G 	c #FEF6E6",
"H 	c #FEF6E7",
"I 	c #FDF6E6",
"J 	c #FDF6E7",
"K 	c #FEF5E6",
"L 	c #FDF5E7",
"M 	c #FEF8ED",
"N 	c #FEF9ED",
"O 	c #FEF8EE",
"P 	c #FFFBF6",
"Q 	c #FEFCF6",
"R 	c #FFFCF5",
"S 	c #FFFBF5",
"T 	c #FEFBF6",
"U 	c #FFFCF6",
"V 	c #FEFCF5",
"W 	c #FEFBF5",
"X 	c #FFFEFD",
"Y 	c #FFFFFD",
"Z 	c #FFFFFC",
"` 	c #FFFEFC",
"    . . . . . . . . . . . . . . . .     ",
"  . + @ + # # $ + @ + $ # + + % # @ .   ",
". & * = * - ; > , - * ; ' & & ' & & & . ",
". ) ) ) ) ! ~ ) ) ) { ! ~ ) ) ! ) ) ) . ",
". ] ^ / ( ] / ^ _ ( : < ( / [ [ : < : . ",
". } | | 1 . . . . . . . . . . } | | | . ",
". 2 3 3 4 . . . . . . . . . . 5 6 7 8 . ",
". 9 0 a 0 0 0 0 0 0 0 9 9 9 0 0 b c 0 . ",
". d d e d f g e d h g d g f i h f d g . ",
". j j j k . . . . . . . . . . l j l l . ",
". m m n m . . . . . . . . . . o n n m . ",
". p p p q r s t r s q p q u p t u p u . ",
". v v v v w x x x x v y x v v v x v x . ",
". z A B A . . . . . . . . . . z A C A . ",
". D D D D . . . . . . . . . . D E E F . ",
". G H I H G I G H I G I J I K H L I J . ",
". M N M M M N M O N N N M N M M M M M . ",
". P P Q P R S S P T R U V V S V P W T . ",
"  . X Y Z ` ` ` ` ` ` ` ` X ` ` ` ` .   ",
"    . . . . . . . . . . . . . . . .     "};
