/* XPM */
static char * shade_inactive_xpm[] = {
"20 20 86 1",
" 	c None",
".	c #AE822A",
"+	c #F5D188",
"@	c #F6D087",
"#	c #F6D188",
"$	c #F5D088",
"%	c #F6D088",
"&	c #F6D187",
"*	c #F6D38E",
"=	c #F6D38F",
"-	c #F7D38E",
";	c #F6D48E",
">	c #F7D48E",
",	c #F7D695",
"'	c #F7D595",
")	c #F7D89B",
"!	c #F8D99C",
"~	c #F8D89B",
"{	c #F8DAA3",
"]	c #F8DBA2",
"^	c #F8DAA2",
"/	c #F8DBA3",
"(	c #F9DDA9",
"_	c #F8DDA9",
":	c #F8DEA9",
"<	c #F9DEA9",
"[	c #F9DDA8",
"}	c #F9E1B1",
"|	c #FAE1B1",
"1	c #FAE3B8",
"2	c #F9E4B8",
"3	c #FAE4B8",
"4	c #F9E3B8",
"5	c #FAE3B7",
"6	c #FAE6BE",
"7	c #FAE6BF",
"8	c #FBE6BE",
"9	c #FBE6BF",
"0	c #FBE7BE",
"a	c #FBE9C6",
"b	c #FBE9C5",
"c	c #FAE8C5",
"d	c #FBE8C5",
"e	c #FBE8C6",
"f	c #FAE9C5",
"g	c #FBEBCC",
"h	c #FCEBCC",
"i	c #FBECCC",
"j	c #FCECCC",
"k	c #FCEED3",
"l	c #FCEDD2",
"m	c #FBEED3",
"n	c #FCEED2",
"o	c #FCEDD3",
"p	c #FCF0D9",
"q	c #FCF1D9",
"r	c #FCF1DA",
"s	c #FDF1DA",
"t	c #FCF0DA",
"u	c #FDF1D9",
"v	c #FDF0D9",
"w	c #FDF4E2",
"x	c #FEF4E1",
"y	c #FDF3E2",
"z	c #FDF4E1",
"A	c #FEF6E9",
"B	c #FDF7E8",
"C	c #FEF6E8",
"D	c #FDF6E8",
"E	c #FDF6E9",
"F	c #FEF7E8",
"G	c #FDF7E9",
"H	c #FEF9EF",
"I	c #FFF9EF",
"J	c #FEF8EE",
"K	c #FEF8EF",
"L	c #FEF9EE",
"M	c #FFFBF5",
"N	c #FEFCF5",
"O	c #FFFCF5",
"P	c #FFFCF6",
"Q	c #FEFCF6",
"R	c #FFFBF6",
"S	c #FFFEFD",
"T	c #FFFEFC",
"U	c #FFFFFC",
"  ................  ",
" .+@@@@#$%+&%%&%+%. ",
".***=-***--*;--=>-;.",
".,'..............,,.",
".)!..............)~.",
".{]].^/]]]/^/^]]^/].",
".((_.(::<<_:<<([<<<.",
".}}}.}}}.......|}|}.",
".112.21331141325343.",
".667.66766667890867.",
".abc.cabdebfddbdddb.",
".ggh.iihhghghhhggjh.",
".klk.mkknnnolnnnkmo.",
".ppq.prspqtuqupvpvv.",
".wwx.wwwyyzwyyzzzzy.",
".ABC.DCEFCFCCGAFFFF.",
".HIJ.HHHHKLHHHHHHHH.",
".MNOPMPOQMMPQPQRNRO.",
" .STTTUSTTUTTUTTTU. ",
"  ................  "};
