/* XPM */
static char * shade_toggled_inactive_xpm[] = {
"20 20 79 1",
" 	c None",
".	c #AE822A",
"+	c #F6D086",
"@	c #F6CF86",
"#	c #F5D086",
"$	c #F6D087",
"%	c #F6D38D",
"&	c #F6D28D",
"*	c #F7D38D",
"=	c #F7D28D",
"-	c #F7D695",
";	c #F7D594",
">	c #F8D89B",
",	c #F8D99B",
"'	c #F8DBA2",
")	c #F8DBA3",
"!	c #F8DAA2",
"~	c #F9DEA9",
"{	c #F8DEA9",
"]	c #F9DDA9",
"^	c #F8DDA9",
"/	c #F9DDAA",
"(	c #F8DDAA",
"_	c #F9DEAA",
":	c #F9E1B0",
"<	c #F9E1B1",
"[	c #FAE0B1",
"}	c #F9E0B1",
"|	c #F9E0B0",
"1	c #FAE3B7",
"2	c #FAE3B8",
"3	c #F9E4B8",
"4	c #FAE4B7",
"5	c #F9E3B8",
"6	c #F9E3B7",
"7	c #FAE6BE",
"8	c #FBE6BE",
"9	c #FAE6BF",
"0	c #FAE8C4",
"a	c #FBE8C3",
"b	c #FBE9C3",
"c	c #FBE8C4",
"d	c #FAE8C3",
"e	c #FBEBCA",
"f	c #FBEBCB",
"g	c #FCEBCA",
"h	c #FBEACA",
"i	c #FBEACB",
"j	c #FCEDD2",
"k	c #FBEED2",
"l	c #FCEDD1",
"m	c #FCEED1",
"n	c #FCF0D8",
"o	c #FDF1D9",
"p	c #FDF1D8",
"q	c #FCF0D9",
"r	c #FCF1D9",
"s	c #FDF3E0",
"t	c #FCF3DF",
"u	c #FDF4E0",
"v	c #FDF4DF",
"w	c #FDF3DF",
"x	c #FEF6E6",
"y	c #FEF6E7",
"z	c #FDF6E7",
"A	c #FEF5E7",
"B	c #FDF5E7",
"C	c #FDF6E6",
"D	c #FEF9EE",
"E	c #FEF8EE",
"F	c #FFF9EE",
"G	c #FFF8EE",
"H	c #FFFBF5",
"I	c #FFFCF4",
"J	c #FEFCF5",
"K	c #FFFCF5",
"L	c #FEFBF5",
"M	c #FFFEFC",
"N	c #FFFFFC",
"  ................  ",
" .+@#++#+$+++++#++. ",
".%&*=%=*&%%%=*=&**=.",
".-;..............;;.",
".>>..............>,.",
".'''.'')!''''''')!'.",
".~{].~{]^~{]]~~/](_.",
".:<:.[}}.......}}||.",
".121.345.......1456.",
".778.797.......9989.",
".0ab.aac.......cdad.",
".efg.fhf.......igef.",
".jjk.ljj.......mljm.",
".nop.nqq.......rqpq.",
".stu.vswsswssssstss.",
".xyz.ABzyzzzAzCzAyz.",
".DEE.EDDEEEFDEEEDEG.",
".HIJHKKJKJJLLHLHHKJ.",
" .MMMMMMMMNNNMMMMM. ",
"  ................  "};
