/* XPM */
static char * title_4_inactive_xpm[] = {
"6 30 105 2",
"  	c None",
". 	c #AE822A",
"+ 	c #AF842C",
"@ 	c #B0842C",
"# 	c #B3862F",
"$ 	c #B2862F",
"% 	c #B2872F",
"& 	c #B58932",
"* 	c #B48832",
"= 	c #B48932",
"- 	c #B48831",
"; 	c #B88C35",
"> 	c #B88D36",
", 	c #B88C36",
"' 	c #B78C35",
") 	c #B78C36",
"! 	c #BA8F39",
"~ 	c #BA8F38",
"{ 	c #BA8E38",
"] 	c #B98F39",
"^ 	c #B98E39",
"/ 	c #BD913C",
"( 	c #BC913B",
"_ 	c #BC913C",
": 	c #BF933F",
"< 	c #BE943E",
"[ 	c #BF943F",
"} 	c #BE943F",
"| 	c #C09741",
"1 	c #C19642",
"2 	c #C19641",
"3 	c #C39944",
"4 	c #C39945",
"5 	c #C49945",
"6 	c #C49944",
"7 	c #C69B47",
"8 	c #C59C47",
"9 	c #C69C47",
"0 	c #C59B47",
"a 	c #C89D4A",
"b 	c #C89E4A",
"c 	c #C99E4B",
"d 	c #CAA14D",
"e 	c #CAA04D",
"f 	c #CBA14D",
"g 	c #CBA04D",
"h 	c #CDA350",
"i 	c #CCA350",
"j 	c #CDA351",
"k 	c #D0A654",
"l 	c #D0A754",
"m 	c #D3A957",
"n 	c #D2A957",
"o 	c #D5AC5A",
"p 	c #D5AB59",
"q 	c #D5AB5A",
"r 	c #D5AC59",
"s 	c #D4AC5A",
"t 	c #D7AE5D",
"u 	c #D7AE5C",
"v 	c #DAB160",
"w 	c #D9B160",
"x 	c #DAB15F",
"y 	c #D9B15F",
"z 	c #DCB463",
"A 	c #DBB363",
"B 	c #DCB363",
"C 	c #DCB362",
"D 	c #DFB666",
"E 	c #DEB566",
"F 	c #DEB666",
"G 	c #DFB665",
"H 	c #DEB665",
"I 	c #E0B969",
"J 	c #E1B969",
"K 	c #E0B868",
"L 	c #E1B868",
"M 	c #E1B869",
"N 	c #E3BA6B",
"O 	c #E3BB6B",
"P 	c #E3BB6C",
"Q 	c #E5BD6E",
"R 	c #E6BD6F",
"S 	c #E5BD6F",
"T 	c #E5BE6E",
"U 	c #E8C071",
"V 	c #E8BF71",
"W 	c #E7C071",
"X 	c #EAC375",
"Y 	c #EBC375",
"Z 	c #EBC376",
"` 	c #EDC678",
" .	c #EDC578",
"..	c #EEC678",
"+.	c #EFC97B",
"@.	c #F0C87B",
"#.	c #F0C97B",
"$.	c #EFC87B",
"%.	c #F1CA7E",
"&.	c #F2CA7E",
"*.	c #F2CB7E",
"=.	c #F4CE81",
"-.	c #F4CD81",
";.	c #F5CE81",
">.	c #F5CD81",
". . . . . . ",
"+ + @ + @ @ ",
"# # $ % $ % ",
"& * & = - = ",
"; > , ' ) ) ",
"! ~ { ] ^ { ",
"/ ( _ _ _ _ ",
": : < [ } [ ",
"| 1 1 2 2 2 ",
"3 4 5 4 4 6 ",
"7 8 9 7 0 0 ",
"a b b c b b ",
"d e e f d g ",
"h h i h j j ",
"k k k k l k ",
"m n n n n m ",
"o p q r s o ",
"t u u t t t ",
"v w x y w w ",
"z A B C B B ",
"D E E F G H ",
"I J K K L M ",
"N O P O P P ",
"Q R S Q T S ",
"U V V W U W ",
"X Y Y Z Y Y ",
"`  .` ..`  .",
"+.@.#.@.$.@.",
"%.&.%.*.*.&.",
"=.-.-.;.;.>."};
