/* XPM */
static char * title_5_active_xpm[] = {
"6 30 92 2",
"  	c None",
". 	c #228B22",
"+ 	c #268E24",
"@ 	c #268D24",
"# 	c #2D9127",
"$ 	c #2D9128",
"% 	c #2E9128",
"& 	c #2E9127",
"* 	c #34952A",
"= 	c #35952A",
"- 	c #35942B",
"; 	c #35952B",
"> 	c #3C992E",
", 	c #3C982F",
"' 	c #3D992E",
") 	c #3C992F",
"! 	c #3C982E",
"~ 	c #439C32",
"{ 	c #449C32",
"] 	c #439C31",
"^ 	c #4B9F34",
"/ 	c #4BA035",
"( 	c #4AA034",
"_ 	c #52A438",
": 	c #52A439",
"< 	c #52A339",
"[ 	c #53A438",
"} 	c #5AA73C",
"| 	c #59A73C",
"1 	c #59A73B",
"2 	c #5AA73B",
"3 	c #61AB3F",
"4 	c #68AF42",
"5 	c #68AE42",
"6 	c #68AE43",
"7 	c #70B246",
"8 	c #70B245",
"9 	c #6FB246",
"0 	c #77B649",
"a 	c #76B649",
"b 	c #7EBA4D",
"c 	c #7EBA4C",
"d 	c #7FBA4C",
"e 	c #85BD4F",
"f 	c #86BD50",
"g 	c #86BD4F",
"h 	c #85BD50",
"i 	c #8DC153",
"j 	c #8CC153",
"k 	c #94C556",
"l 	c #95C557",
"m 	c #95C556",
"n 	c #9CC85A",
"o 	c #9BC95A",
"p 	c #9BC959",
"q 	c #9BC859",
"r 	c #A3CC5D",
"s 	c #ABD061",
"t 	c #AAD060",
"u 	c #AAD061",
"v 	c #B0D263",
"w 	c #AFD263",
"x 	c #B0D262",
"y 	c #AFD363",
"z 	c #B7D666",
"A 	c #B8D666",
"B 	c #BED969",
"C 	c #BED96A",
"D 	c #BFD96A",
"E 	c #BEDA69",
"F 	c #BFDA6A",
"G 	c #BEDA6A",
"H 	c #C6DD6D",
"I 	c #C6DE6D",
"J 	c #C6DD6C",
"K 	c #C5DE6D",
"L 	c #CDE170",
"M 	c #CDE270",
"N 	c #D4E573",
"O 	c #D4E574",
"P 	c #D5E574",
"Q 	c #DBE976",
"R 	c #DCE977",
"S 	c #DBE877",
"T 	c #DCE877",
"U 	c #E3EC7A",
"V 	c #E3ED7A",
"W 	c #E4EC7A",
"X 	c #EBF07E",
"Y 	c #EAF07D",
"Z 	c #EAEF7E",
"` 	c #EBF07D",
". . . . . . ",
"+ + @ @ + @ ",
"# $ % $ # & ",
"* = - ; - - ",
"> , ' ) ! > ",
"~ { ] ] ] ~ ",
"^ / / / ^ ( ",
"_ : < _ [ [ ",
"} | 1 } } 2 ",
"3 3 3 3 3 3 ",
"4 4 5 4 6 4 ",
"7 8 8 7 7 9 ",
"0 0 0 0 a 0 ",
"b b c d b c ",
"e e f e g h ",
"i i i i i j ",
"k k l m m m ",
"n n o p n q ",
"r r r r r r ",
"s t t t t u ",
"v w w x v y ",
"z z z z A z ",
"B C D E F G ",
"H I J H H K ",
"L L L L L M ",
"N O O N P N ",
"Q R S R T T ",
"U U V W U W ",
"X X Y X Z ` ",
". . . . . . "};
