/* XPM */
static char * top_right_inactive_xpm[] = {
"6 30 90 1",
" 	c None",
".	c #AE822A",
"+	c #AF842C",
"@	c #B0842C",
"#	c #B2872F",
"$	c #B2862F",
"%	c #B58932",
"&	c #B48932",
"*	c #B78C35",
"=	c #B78B35",
"-	c #BA8F38",
";	c #B98F38",
">	c #BA8E39",
",	c #B98F39",
"'	c #BC923B",
")	c #BD913B",
"!	c #BC913C",
"~	c #BC913B",
"{	c #BF943E",
"]	c #BE943E",
"^	c #BF933F",
"/	c #BF933E",
"(	c #C19642",
"_	c #C19741",
":	c #C19641",
"<	c #C49944",
"[	c #C39944",
"}	c #C49945",
"|	c #C69C47",
"1	c #C69C48",
"2	c #C69B47",
"3	c #C69B48",
"4	c #C89E4B",
"5	c #C89F4B",
"6	c #C99F4B",
"7	c #CBA14E",
"8	c #CBA14D",
"9	c #CEA451",
"0	c #CDA451",
"a	c #CDA450",
"b	c #D0A654",
"c	c #CFA654",
"d	c #D0A653",
"e	c #D0A753",
"f	c #D2A957",
"g	c #D3A956",
"h	c #D3A957",
"i	c #D5AC5A",
"j	c #D5AB5A",
"k	c #D7AE5D",
"l	c #D8AE5D",
"m	c #D7AF5D",
"n	c #DAB160",
"o	c #D9B160",
"p	c #DCB364",
"q	c #DDB463",
"r	c #DCB363",
"s	c #DCB463",
"t	c #DDB363",
"u	c #DFB666",
"v	c #DEB667",
"w	c #DEB666",
"x	c #E1B869",
"y	c #E1B96A",
"z	c #E1B969",
"A	c #E3BC6C",
"B	c #E4BC6C",
"C	c #E3BB6D",
"D	c #E4BB6D",
"E	c #E6BE6F",
"F	c #E6BE70",
"G	c #E9C173",
"H	c #E8C072",
"I	c #E8C172",
"J	c #EBC375",
"K	c #EBC376",
"L	c #EBC476",
"M	c #EDC679",
"N	c #EEC678",
"O	c #EEC679",
"P	c #F0C87B",
"Q	c #F0C97C",
"R	c #F2CC7F",
"S	c #F3CB7F",
"T	c #F3CB7E",
"U	c #F2CB7F",
"V	c #F5CE82",
"W	c #F5CE81",
"X	c #F4CE82",
"Y	c #F5CD82",
"...   ",
"+@@.  ",
"#$$$. ",
"%&&%&.",
"***=*.",
"-;>,;.",
"')!~!.",
"{]^]/.",
"(_:((.",
"<<[}<.",
"|1223.",
"44546.",
"78787.",
"90a99.",
"bbcde.",
"ffgfh.",
"ijjij.",
"klklm.",
"nonnn.",
"pqrst.",
"uvuww.",
"xyzzz.",
"ABCCD.",
"EFFEF.",
"GHIHG.",
"JKKJL.",
"MNOMM.",
"PQQPQ.",
"RSTSU.",
"VWXYX."};
