/* XPM */
static char * top_left_inactive_xpm[] = {
"6 30 90 1",
" 	c None",
".	c #AE822A",
"+	c #B0842C",
"@	c #AF842C",
"#	c #B2862F",
"$	c #B2872F",
"%	c #B48932",
"&	c #B58932",
"*	c #B78C35",
"=	c #B78B35",
"-	c #B98F38",
";	c #B98F39",
">	c #BA8E39",
",	c #BA8F38",
"'	c #BC913C",
")	c #BC913B",
"!	c #BD913B",
"~	c #BC923B",
"{	c #BF933E",
"]	c #BE943E",
"^	c #BF933F",
"/	c #BF943E",
"(	c #C19642",
"_	c #C19641",
":	c #C19741",
"<	c #C49944",
"[	c #C49945",
"}	c #C39944",
"|	c #C69B48",
"1	c #C69B47",
"2	c #C69C48",
"3	c #C69C47",
"4	c #C99F4B",
"5	c #C89E4B",
"6	c #C89F4B",
"7	c #CBA14E",
"8	c #CBA14D",
"9	c #CEA451",
"0	c #CDA450",
"a	c #CDA451",
"b	c #D0A753",
"c	c #D0A653",
"d	c #CFA654",
"e	c #D0A654",
"f	c #D3A957",
"g	c #D2A957",
"h	c #D3A956",
"i	c #D5AB5A",
"j	c #D5AC5A",
"k	c #D7AF5D",
"l	c #D8AE5D",
"m	c #D7AE5D",
"n	c #DAB160",
"o	c #D9B160",
"p	c #DDB363",
"q	c #DCB463",
"r	c #DCB363",
"s	c #DDB463",
"t	c #DCB364",
"u	c #DEB666",
"v	c #DFB666",
"w	c #DEB667",
"x	c #E1B969",
"y	c #E1B96A",
"z	c #E1B869",
"A	c #E4BB6D",
"B	c #E3BB6D",
"C	c #E4BC6C",
"D	c #E3BC6C",
"E	c #E6BE70",
"F	c #E6BE6F",
"G	c #E9C173",
"H	c #E8C072",
"I	c #E8C172",
"J	c #EBC476",
"K	c #EBC375",
"L	c #EBC376",
"M	c #EDC679",
"N	c #EEC679",
"O	c #EEC678",
"P	c #F0C97C",
"Q	c #F0C87B",
"R	c #F2CB7F",
"S	c #F3CB7F",
"T	c #F3CB7E",
"U	c #F2CC7F",
"V	c #F4CE82",
"W	c #F5CD82",
"X	c #F5CE81",
"Y	c #F5CE82",
"   ...",
"  .++@",
" .###$",
".%&%%&",
".*=***",
".-;>-,",
".')'!~",
".{]^]/",
".((_:(",
".<[}<<",
".|1123",
".45655",
".78787",
".990a9",
".bcdee",
".fghgg",
".ijiij",
".klmlm",
".nnnon",
".pqrst",
".uuvwv",
".xxxyz",
".ABBCD",
".EFEEF",
".GHIHG",
".JKLLK",
".MMNOM",
".PQPPQ",
".RSTSU",
".VWVXY"};
