/* XPM */
static char * top_right_active_xpm[] = {
"6 30 86 1",
" 	c None",
".	c #228B22",
"+	c #248D23",
"@	c #258D24",
"#	c #248D24",
"$	c #2C9026",
"%	c #2B9027",
"&	c #2B9026",
"*	c #33942A",
"=	c #33932A",
"-	c #3A982E",
";	c #3A982D",
">	c #3A972D",
",	c #429B30",
"'	c #429B31",
")	c #499F34",
"!	c #499E34",
"~	c #51A237",
"{	c #50A237",
"]	c #50A338",
"^	c #50A337",
"/	c #58A63B",
"(	c #57A63B",
"_	c #58A63A",
":	c #5FAA3E",
"<	c #5FAA3F",
"[	c #66AE42",
"}	c #67AD41",
"|	c #66AD42",
"1	c #67AE41",
"2	c #6DB145",
"3	c #6EB244",
"4	c #6EB145",
"5	c #6EB144",
"6	c #75B548",
"7	c #7CB94B",
"8	c #7CB84B",
"9	c #7CB84C",
"0	c #7DB94B",
"a	c #83BC4F",
"b	c #84BC4F",
"c	c #83BD4F",
"d	c #8BC052",
"e	c #92C456",
"f	c #92C455",
"g	c #92C355",
"h	c #9AC758",
"i	c #9AC759",
"j	c #99C759",
"k	c #99C858",
"l	c #A2CB5C",
"m	c #A1CB5C",
"n	c #A8CF5F",
"o	c #A9CF5F",
"p	c #A8CF60",
"q	c #A9CF60",
"r	c #AFD363",
"s	c #B0D362",
"t	c #B0D262",
"u	c #B0D263",
"v	c #B8D667",
"w	c #B7D666",
"x	c #B7D766",
"y	c #B8D666",
"z	c #BEDA69",
"A	c #BED96A",
"B	c #BFDA6A",
"C	c #BFDA69",
"D	c #C5DE6C",
"E	c #C6DE6C",
"F	c #C6DD6D",
"G	c #CDE170",
"H	c #CDE270",
"I	c #D4E573",
"J	c #D4E473",
"K	c #D4E574",
"L	c #D5E573",
"M	c #DCE977",
"N	c #DCE877",
"O	c #DCE876",
"P	c #E4EC7A",
"Q	c #E3EC7A",
"R	c #EAEF7D",
"S	c #EAF07D",
"T	c #EAF07E",
"U	c #EBF07D",
"...   ",
"+@#.  ",
"$%$&. ",
"*=*=*.",
"-;;;>.",
",'','.",
"))))!.",
"~{]^~.",
"/(/_/.",
":::<<.",
"[}|1[.",
"23425.",
"66666.",
"78907.",
"abbac.",
"ddddd.",
"effge.",
"hijik.",
"lmmlm.",
"nopqo.",
"rsrtu.",
"vwxyy.",
"zABCz.",
"DEFDE.",
"GGGGH.",
"IJIKL.",
"MNNON.",
"PQQQQ.",
"RSTTU.",
"......"};
