/* XPM */
static char * top_left_active_xpm[] = {
"6 30 86 1",
" 	c None",
".	c #228B22",
"+	c #248D24",
"@	c #258D24",
"#	c #248D23",
"$	c #2B9026",
"%	c #2C9026",
"&	c #2B9027",
"*	c #33942A",
"=	c #33932A",
"-	c #3A972D",
";	c #3A982D",
">	c #3A982E",
",	c #429B31",
"'	c #429B30",
")	c #499E34",
"!	c #499F34",
"~	c #51A237",
"{	c #50A337",
"]	c #50A338",
"^	c #50A237",
"/	c #58A63B",
"(	c #58A63A",
"_	c #57A63B",
":	c #5FAA3F",
"<	c #5FAA3E",
"[	c #66AE42",
"}	c #67AE41",
"|	c #66AD42",
"1	c #67AD41",
"2	c #6EB144",
"3	c #6DB145",
"4	c #6EB145",
"5	c #6EB244",
"6	c #75B548",
"7	c #7CB94B",
"8	c #7DB94B",
"9	c #7CB84C",
"0	c #7CB84B",
"a	c #83BD4F",
"b	c #83BC4F",
"c	c #84BC4F",
"d	c #8BC052",
"e	c #92C456",
"f	c #92C355",
"g	c #92C455",
"h	c #99C858",
"i	c #9AC759",
"j	c #99C759",
"k	c #9AC758",
"l	c #A1CB5C",
"m	c #A2CB5C",
"n	c #A9CF5F",
"o	c #A9CF60",
"p	c #A8CF60",
"q	c #A8CF5F",
"r	c #B0D263",
"s	c #B0D262",
"t	c #AFD363",
"u	c #B0D362",
"v	c #B8D666",
"w	c #B7D766",
"x	c #B7D666",
"y	c #B8D667",
"z	c #BEDA69",
"A	c #BFDA69",
"B	c #BFDA6A",
"C	c #BED96A",
"D	c #C6DE6C",
"E	c #C5DE6C",
"F	c #C6DD6D",
"G	c #CDE270",
"H	c #CDE170",
"I	c #D5E573",
"J	c #D4E574",
"K	c #D4E573",
"L	c #D4E473",
"M	c #DCE877",
"N	c #DCE876",
"O	c #DCE977",
"P	c #E3EC7A",
"Q	c #E4EC7A",
"R	c #EBF07D",
"S	c #EAF07E",
"T	c #EAF07D",
"U	c #EAEF7D",
"   ...",
"  .+@#",
" .$%&%",
".*=*=*",
".-;;;>",
".,',,'",
".)!!!!",
".~{]^~",
"./(/_/",
".::<<<",
".[}|1[",
".23453",
".66666",
".78907",
".abccb",
".ddddd",
".efgge",
".hijik",
".lmllm",
".nopnq",
".rstut",
".vvwxy",
".zABCz",
".DEFDE",
".GHHHH",
".IJKLK",
".MNMMO",
".PPPPQ",
".RSSTU",
"......"};
