#define close_width 10
#define close_height 10
static unsigned char close_bits[] = {
   0x00, 0x00, 0x00, 0x01, 0x80, 0x00, 0x40, 0x00, 0x20, 0x00, 0x10, 0x00,
   0x08, 0x00, 0x04, 0x00, 0x02, 0x00, 0x00, 0x00 };
