#define desk_width 10
#define desk_height 10
static unsigned char desk_bits[] = {
   0x00, 0x00, 0x02, 0x00, 0x22, 0x00, 0x3e, 0x00, 0xfe, 0x01, 0x3e, 0x00,
   0x22, 0x00, 0x02, 0x00, 0x00, 0x00, 0x00, 0x00 };
