#define iconify_width 10
#define iconify_height 10
static unsigned char iconify_bits[] = {
   0x00, 0x00, 0x00, 0x01, 0x80, 0x00, 0x40, 0x00, 0x20, 0x00, 0x12, 0x00,
   0x0a, 0x00, 0x06, 0x00, 0x1e, 0x00, 0x00, 0x00 };
