#define max_toggled_width 10
#define max_toggled_height 10
static unsigned char max_toggled_bits[] = {
   0x00, 0x00, 0xfc, 0x01, 0x04, 0x01, 0xfe, 0x01, 0x82, 0x01, 0x82, 0x01,
   0x82, 0x01, 0x82, 0x00, 0xfe, 0x00, 0x00, 0x00 };
