#define shade_width 10
#define shade_height 10
static unsigned char shade_bits[] = {
   0x00, 0x00, 0xfe, 0x01, 0xfe, 0x01, 0x04, 0x00, 0xf4, 0x00, 0x04, 0x00,
   0x04, 0x00, 0x04, 0x00, 0x04, 0x00, 0x00, 0x00 };
